<svg width="37" height="36" viewBox="0 0 37 36" fill="none" xmlns="http://www.w3.org/2000/svg">
<path fill-rule="evenodd" clip-rule="evenodd" d="M29.2455 9.67656C29.3738 9.54845 29.4756 9.39632 29.545 9.22886C29.6145 9.06141 29.6503 8.88191 29.6504 8.70061C29.6506 8.51931 29.615 8.33977 29.5457 8.17223C29.4764 8.00469 29.3748 7.85244 29.2467 7.72416C29.1186 7.59589 28.9664 7.4941 28.799 7.42462C28.6315 7.35514 28.452 7.31932 28.2707 7.31921C28.0894 7.3191 27.9099 7.3547 27.7424 7.42397C27.5748 7.49325 27.4226 7.59485 27.2943 7.72296L18.9687 16.0486L10.6455 7.72296C10.3864 7.4639 10.0351 7.31836 9.6687 7.31836C9.30233 7.31836 8.95096 7.4639 8.6919 7.72296C8.43283 7.98203 8.28729 8.33339 8.28729 8.69976C8.28729 9.06613 8.43283 9.4175 8.6919 9.67656L17.0175 17.9998L8.6919 26.323C8.56362 26.4512 8.46187 26.6035 8.39245 26.7711C8.32302 26.9387 8.28729 27.1184 8.28729 27.2998C8.28729 27.4812 8.32302 27.6608 8.39245 27.8284C8.46187 27.996 8.56362 28.1483 8.6919 28.2766C8.95096 28.5356 9.30233 28.6812 9.6687 28.6812C9.8501 28.6812 10.0297 28.6454 10.1973 28.576C10.3649 28.5066 10.5172 28.4048 10.6455 28.2766L18.9687 19.951L27.2943 28.2766C27.5534 28.5353 27.9046 28.6805 28.2707 28.6803C28.6369 28.6801 28.988 28.5344 29.2467 28.2754C29.5054 28.0163 29.6507 27.6651 29.6504 27.2989C29.6502 26.9328 29.5046 26.5817 29.2455 26.323L20.9199 17.9998L29.2455 9.67656Z" fill="black"/>
</svg>
